<svg xmlns="http://www.w3.org/2000/svg" xml:space="preserve" id="favicon" width="512" height="512" version="1.1">
  <defs id="defs1">
    <style>
    @media (prefers-color-scheme: dark) {
    .a { fill: #c0d22d }
    }
    </style>
  </defs>
  <circle id="dot" cx="639.798" cy="843.407" r="21.709" style="display:inline;fill:#ec8602;stroke-width:1" transform="translate(-420.945 -595.21)"/>
  <path id="bonaparte" class="a" fill="#14271d" d="M744.038 840.91a77.344 77.344 0 0 0 36.079-32.236 91.215 91.215 0 0 0 12.64-46.568 96.325 96.325 0 0 0-9.297-41.305 83.569 83.569 0 0 0-26.896-32.505 68.661 68.661 0 0 0-41.15-12.641H546.776v339.117h160.952a112.924 112.924 0 0 0 49.95-10.989 90.178 90.178 0 0 0 36.04-30.546 79.42 79.42 0 0 0 13.37-45.876 90.062 90.062 0 0 0-16.944-54.676 85.106 85.106 0 0 0-46.107-31.775zm12.18 107.237a59.401 59.401 0 0 1-20.056 21.248 51.448 51.448 0 0 1-28.433 8.145H589.772V712.886h110.81a44.493 44.493 0 0 1 25.551 7.685 53.446 53.446 0 0 1 17.675 20.325 62.629 62.629 0 0 1 6.455 28.894 58.556 58.556 0 0 1-6.916 28.164 55.674 55.674 0 0 1-18.635 20.556 47.068 47.068 0 0 1-21.363 7.262c-8.376 0-15.37 7.684-15.37 17.52 0 9.836 6.801 17.56 15.37 17.56h7.684a46.107 46.107 0 0 1 26.896 8.145 58.556 58.556 0 0 1 18.635 21.478 62.475 62.475 0 0 1 6.916 29.124 56.712 56.712 0 0 1-7.262 28.548z" style="display:inline;fill-opacity:1;stroke-width:1" transform="translate(-420.945 -595.21)"/>
</svg>